<svg width="32" height="32" viewBox="0 0 32 32" fill="none" xmlns="http://www.w3.org/2000/svg">
<circle cx="16" cy="16" r="16" fill="#D1FAE5"/>
<path opacity="0.2" d="M21.25 21.25H25V23.5C25 23.6989 24.921 23.8897 24.7803 24.0303C24.6397 24.171 24.4489 24.25 24.25 24.25H22C21.8011 24.25 21.6103 24.171 21.4697 24.0303C21.329 23.8897 21.25 23.6989 21.25 23.5V21.25ZM7 23.5C7 23.6989 7.07902 23.8897 7.21967 24.0303C7.36032 24.171 7.55109 24.25 7.75 24.25H10C10.1989 24.25 10.3897 24.171 10.5303 24.0303C10.671 23.8897 10.75 23.6989 10.75 23.5V21.25H7V23.5ZM22.1978 8.94531C22.1389 8.81276 22.0428 8.70015 21.9211 8.62111C21.7995 8.54207 21.6576 8.5 21.5125 8.5H10.4875C10.3424 8.5 10.2005 8.54207 10.0789 8.62111C9.95722 8.70015 9.86112 8.81276 9.80219 8.94531L7 15.25H25L22.1978 8.94531Z" fill="#064E3B"/>
<path d="M26.5 14.5H25.4875L22.8831 8.64062C22.7653 8.37553 22.5731 8.15029 22.3298 7.99222C22.0865 7.83414 21.8026 7.75 21.5125 7.75H10.4875C10.1974 7.75 9.91349 7.83414 9.67022 7.99222C9.42695 8.15029 9.23474 8.37553 9.11688 8.64062L6.5125 14.5H5.5C5.30109 14.5 5.11032 14.579 4.96967 14.7197C4.82902 14.8603 4.75 15.0511 4.75 15.25C4.75 15.4489 4.82902 15.6397 4.96967 15.7803C5.11032 15.921 5.30109 16 5.5 16H6.25V23.5C6.25 23.8978 6.40804 24.2794 6.68934 24.5607C6.97064 24.842 7.35218 25 7.75 25H10C10.3978 25 10.7794 24.842 11.0607 24.5607C11.342 24.2794 11.5 23.8978 11.5 23.5V22H20.5V23.5C20.5 23.8978 20.658 24.2794 20.9393 24.5607C21.2206 24.842 21.6022 25 22 25H24.25C24.6478 25 25.0294 24.842 25.3107 24.5607C25.592 24.2794 25.75 23.8978 25.75 23.5V16H26.5C26.6989 16 26.8897 15.921 27.0303 15.7803C27.171 15.6397 27.25 15.4489 27.25 15.25C27.25 15.0511 27.171 14.8603 27.0303 14.7197C26.8897 14.579 26.6989 14.5 26.5 14.5ZM10.4875 9.25H21.5125L23.8459 14.5H8.15406L10.4875 9.25ZM10 23.5H7.75V22H10V23.5ZM22 23.5V22H24.25V23.5H22ZM24.25 20.5H7.75V16H24.25V20.5ZM9.25 18.25C9.25 18.0511 9.32902 17.8603 9.46967 17.7197C9.61032 17.579 9.80109 17.5 10 17.5H11.5C11.6989 17.5 11.8897 17.579 12.0303 17.7197C12.171 17.8603 12.25 18.0511 12.25 18.25C12.25 18.4489 12.171 18.6397 12.0303 18.7803C11.8897 18.921 11.6989 19 11.5 19H10C9.80109 19 9.61032 18.921 9.46967 18.7803C9.32902 18.6397 9.25 18.4489 9.25 18.25ZM19.75 18.25C19.75 18.0511 19.829 17.8603 19.9697 17.7197C20.1103 17.579 20.3011 17.5 20.5 17.5H22C22.1989 17.5 22.3897 17.579 22.5303 17.7197C22.671 17.8603 22.75 18.0511 22.75 18.25C22.75 18.4489 22.671 18.6397 22.5303 18.7803C22.3897 18.921 22.1989 19 22 19H20.5C20.3011 19 20.1103 18.921 19.9697 18.7803C19.829 18.6397 19.75 18.4489 19.75 18.25Z" fill="#064E3B"/>
</svg>
