<svg width="32" height="32" viewBox="0 0 32 32" fill="none" xmlns="http://www.w3.org/2000/svg">
<circle cx="16" cy="16" r="16" fill="#DBEAFE"/>
<path opacity="0.2" d="M23.5 16.75V24.25C23.5 24.4489 23.421 24.6397 23.2803 24.7803C23.1397 24.921 22.9489 25 22.75 25H9.25C9.05109 25 8.86032 24.921 8.71967 24.7803C8.57902 24.6397 8.5 24.4489 8.5 24.25V16.75C8.5 15.9544 8.81607 15.1913 9.37868 14.6287C9.94129 14.0661 10.7044 13.75 11.5 13.75H20.5C21.2956 13.75 22.0587 14.0661 22.6213 14.6287C23.1839 15.1913 23.5 15.9544 23.5 16.75Z" fill="#1E3A8A"/>
<path d="M21.25 13.075V12.25C21.25 11.4544 20.9339 10.6913 20.3713 10.1287C19.8087 9.56607 19.0456 9.25 18.25 9.25H16.75V7H19.75C19.9489 7 20.1397 7.07902 20.2803 7.21967C20.421 7.36032 20.5 7.55109 20.5 7.75C20.5 7.94891 20.579 8.13968 20.7197 8.28033C20.8603 8.42098 21.0511 8.5 21.25 8.5C21.4489 8.5 21.6397 8.42098 21.7803 8.28033C21.921 8.13968 22 7.94891 22 7.75C22 7.15326 21.7629 6.58097 21.341 6.15901C20.919 5.73705 20.3467 5.5 19.75 5.5H13.75C13.5511 5.5 13.3603 5.57902 13.2197 5.71967C13.079 5.86032 13 6.05109 13 6.25C13 6.44891 13.079 6.63968 13.2197 6.78033C13.3603 6.92098 13.5511 7 13.75 7H15.25V9.25H13.75C12.9544 9.25 12.1913 9.56607 11.6287 10.1287C11.0661 10.6913 10.75 11.4544 10.75 12.25V13.075C9.90354 13.249 9.14297 13.7096 8.5965 14.379C8.05002 15.0485 7.75106 15.8858 7.75 16.75V24.25C7.75 24.6478 7.90804 25.0294 8.18934 25.3107C8.47064 25.592 8.85218 25.75 9.25 25.75H22.75C23.1478 25.75 23.5294 25.592 23.8107 25.3107C24.092 25.0294 24.25 24.6478 24.25 24.25V16.75C24.2489 15.8858 23.95 15.0485 23.4035 14.379C22.857 13.7096 22.0965 13.249 21.25 13.075ZM13.75 10.75H18.25C18.6478 10.75 19.0294 10.908 19.3107 11.1893C19.592 11.4706 19.75 11.8522 19.75 12.25V13H12.25V12.25C12.25 11.8522 12.408 11.4706 12.6893 11.1893C12.9706 10.908 13.3522 10.75 13.75 10.75ZM22.75 24.25H9.25V16.75C9.25 16.1533 9.48705 15.581 9.90901 15.159C10.331 14.7371 10.9033 14.5 11.5 14.5H20.5C21.0967 14.5 21.669 14.7371 22.091 15.159C22.5129 15.581 22.75 16.1533 22.75 16.75V24.25Z" fill="#1E3A8A"/>
</svg>
