<svg width="32" height="32" viewBox="0 0 32 32" fill="none" xmlns="http://www.w3.org/2000/svg">
<circle cx="16" cy="16" r="16" fill="#FFE4E6"/>
<path opacity="0.2" d="M11.5 7.75V24.25H8.5C8.30109 24.25 8.11032 24.171 7.96967 24.0303C7.82902 23.8897 7.75 23.6989 7.75 23.5V8.5C7.75 8.30109 7.82902 8.11032 7.96967 7.96967C8.11032 7.82902 8.30109 7.75 8.5 7.75H11.5Z" fill="#881337"/>
<path d="M21.25 14.5C21.25 14.6989 21.171 14.8897 21.0303 15.0303C20.8897 15.171 20.6989 15.25 20.5 15.25H14.5C14.3011 15.25 14.1103 15.171 13.9697 15.0303C13.829 14.8897 13.75 14.6989 13.75 14.5C13.75 14.3011 13.829 14.1103 13.9697 13.9697C14.1103 13.829 14.3011 13.75 14.5 13.75H20.5C20.6989 13.75 20.8897 13.829 21.0303 13.9697C21.171 14.1103 21.25 14.3011 21.25 14.5ZM20.5 16.75H14.5C14.3011 16.75 14.1103 16.829 13.9697 16.9697C13.829 17.1103 13.75 17.3011 13.75 17.5C13.75 17.6989 13.829 17.8897 13.9697 18.0303C14.1103 18.171 14.3011 18.25 14.5 18.25H20.5C20.6989 18.25 20.8897 18.171 21.0303 18.0303C21.171 17.8897 21.25 17.6989 21.25 17.5C21.25 17.3011 21.171 17.1103 21.0303 16.9697C20.8897 16.829 20.6989 16.75 20.5 16.75ZM25 8.5V23.5C25 23.8978 24.842 24.2794 24.5607 24.5607C24.2794 24.842 23.8978 25 23.5 25H8.5C8.10218 25 7.72064 24.842 7.43934 24.5607C7.15804 24.2794 7 23.8978 7 23.5V8.5C7 8.10218 7.15804 7.72064 7.43934 7.43934C7.72064 7.15804 8.10218 7 8.5 7H23.5C23.8978 7 24.2794 7.15804 24.5607 7.43934C24.842 7.72064 25 8.10218 25 8.5ZM8.5 23.5H10.75V8.5H8.5V23.5ZM23.5 23.5V8.5H12.25V23.5H23.5Z" fill="#881337"/>
</svg>
