<?xml version="1.0" encoding="utf-8"?>

<!DOCTYPE svg PUBLIC "-//W3C//DTD SVG 1.1//EN" "http://www.w3.org/Graphics/SVG/1.1/DTD/svg11.dtd">
<!-- Uploaded to: SVG Repo, www.svgrepo.com, Generator: SVG Repo Mixer Tools -->
<svg version="1.1" id="Layer_1" xmlns:sketch="http://www.bohemiancoding.com/sketch/ns"
	 xmlns="http://www.w3.org/2000/svg" xmlns:xlink="http://www.w3.org/1999/xlink"  width="800px" height="800px"
	 viewBox="0 0 65 30" enable-background="new 0 0 65 30" xml:space="preserve">
<title>Competition</title>
<desc>Created with Sketch.</desc>
<g id="Page-1" sketch:type="MSPage">
	<g id="Competition" transform="translate(1.000000, 1.000000)" sketch:type="MSLayerGroup">
		<path id="Shape" sketch:type="MSShapeGroup" fill="none" stroke="#6B6C6E" stroke-width="2" d="M60.1,7h-16c-1.1,0-2,0.9-2,2
			v4.083V2c0-1.1-0.9-2-2-2h-20c-1.1,0-2,0.9-2,2v15.583V14c0-1.1-0.9-2-2-2h-14c-1.1,0-2,0.9-2,2v12c0,1.1,0.9,2,2,2h58
			c1.1,0,2-0.9,2-2V9C62.1,7.9,61.2,7,60.1,7L60.1,7z"/>
		<path id="Shape_1_" sketch:type="MSShapeGroup" fill="none" stroke="#6B6C6E" stroke-width="2" d="M27.1,15l3-3v9"/>
		<path id="Shape_2_" sketch:type="MSShapeGroup" fill="none" stroke="#6B6C6E" stroke-width="2" d="M50.1,16c0-1.1,0.9-2,2-2
			c1.1,0,2,0.9,2,2c0,3.3-4,6-4,6h5"/>
		<path id="Shape_3_" sketch:type="MSShapeGroup" fill="none" stroke="#6B6C6E" stroke-width="2" d="M7.1,21.9c0,1.1,0.9,2,2,2
			s2-0.9,2-2s-0.9-2-2-2l0,0c1.1,0,2-0.9,2-2s-0.9-2-2-2s-2,0.9-2,2"/>
	</g>
</g>
</svg>