<svg width="32" height="32" viewBox="0 0 32 32" fill="none" xmlns="http://www.w3.org/2000/svg">
<circle cx="16" cy="16" r="16" fill="#D1FAE5"/>
<path opacity="0.2" d="M7 15.7874L11.5 18.2503V23.3915L7.39 21.1415C7.2722 21.077 7.17386 20.9821 7.10526 20.8667C7.03666 20.7513 7.0003 20.6195 7 20.4853V15.7874ZM20.5 18.2503V23.3915L24.61 21.1415C24.7278 21.077 24.8261 20.9821 24.8947 20.8667C24.9633 20.7513 24.9997 20.6195 25 20.4853V15.7884L20.5 18.2503ZM15.64 6.344L11.7963 8.44963L16 10.7503L20.2056 8.44775L16.36 6.344C16.2496 6.28361 16.1258 6.25195 16 6.25195C15.8742 6.25195 15.7504 6.28361 15.64 6.344Z" fill="#064E3B"/>
<path d="M24.97 10.2019L16.72 5.68782C16.4994 5.56653 16.2517 5.50293 16 5.50293C15.7483 5.50293 15.5006 5.56653 15.28 5.68782L7.03 10.2047C6.7944 10.3336 6.59772 10.5234 6.46052 10.7543C6.32331 10.9852 6.25061 11.2486 6.25 11.5172V20.4834C6.25061 20.752 6.32331 21.0155 6.46052 21.2464C6.59772 21.4772 6.7944 21.667 7.03 21.7959L15.28 26.3119C15.5004 26.4337 15.7482 26.4976 16 26.4976C16.2518 26.4976 16.4996 26.4337 16.72 26.3119L24.97 21.7959C25.2056 21.667 25.4023 21.4772 25.5395 21.2464C25.6767 21.0155 25.7494 20.752 25.75 20.4834V11.5172C25.7499 11.2481 25.6774 10.9841 25.5402 10.7527C25.403 10.5213 25.206 10.331 24.97 10.2019ZM19.75 18.2503V22.9463L16.75 24.5888V16.4447L24.25 12.3384V15.3384L20.14 17.5884C20.0214 17.6534 19.9225 17.7491 19.8538 17.8657C19.7852 17.9822 19.7493 18.1151 19.75 18.2503ZM11.86 17.5941L7.75 15.3441V12.3441L15.25 16.4503V24.5944L12.25 22.9463V18.2503C12.2497 18.116 12.2133 17.9843 12.1447 17.8689C12.0761 17.7534 11.9778 17.6585 11.86 17.5941ZM11.7944 9.30563L15.6381 11.4103C15.7485 11.4707 15.8723 11.5024 15.9981 11.5024C16.1239 11.5024 16.2477 11.4707 16.3581 11.4103L20.2019 9.30563L23.4344 11.0747L16 15.1453L8.56187 11.0728L11.7944 9.30563ZM16 7.00032L18.6437 8.44782L16 9.89625L13.3563 8.44876L16 7.00032ZM7.75 17.0522L10.75 18.6947V22.125L7.75 20.4834V17.0522ZM21.25 22.125V18.6947L24.25 17.0522V20.4834L21.25 22.125Z" fill="#064E3B"/>
</svg>
