<svg width="32" height="32" viewBox="0 0 32 32" fill="none" xmlns="http://www.w3.org/2000/svg">
<circle cx="16" cy="16" r="16" fill="#FFE4E6"/>
<path opacity="0.2" d="M23.5 7.75V19.75H18.25C18.25 19.75 18.25 10 23.5 7.75Z" fill="#881337"/>
<path d="M10.75 12.25V7.74996C10.75 7.55105 10.829 7.36028 10.9697 7.21963C11.1103 7.07898 11.3011 6.99996 11.5 6.99996C11.6989 6.99996 11.8897 7.07898 12.0303 7.21963C12.171 7.36028 12.25 7.55105 12.25 7.74996V12.25C12.25 12.4489 12.171 12.6396 12.0303 12.7803C11.8897 12.9209 11.6989 13 11.5 13C11.3011 13 11.1103 12.9209 10.9697 12.7803C10.829 12.6396 10.75 12.4489 10.75 12.25ZM24.25 7.74996V25C24.25 25.1989 24.171 25.3896 24.0303 25.5303C23.8897 25.6709 23.6989 25.75 23.5 25.75C23.3011 25.75 23.1103 25.6709 22.9697 25.5303C22.829 25.3896 22.75 25.1989 22.75 25V20.5H18.25C18.0511 20.5 17.8603 20.4209 17.7197 20.2803C17.579 20.1396 17.5 19.9489 17.5 19.75C17.5348 17.9534 17.7618 16.1657 18.1769 14.4175C19.0938 10.6215 20.8319 8.07715 23.2047 7.0609C23.3187 7.01205 23.4431 6.99225 23.5667 7.00328C23.6903 7.01432 23.8092 7.05584 23.9128 7.12412C24.0164 7.19241 24.1014 7.28532 24.1603 7.39455C24.2191 7.50377 24.2499 7.62589 24.25 7.74996ZM22.75 9.05309C19.7341 11.3565 19.1434 16.9675 19.0281 19H22.75V9.05309ZM15.2397 7.62715C15.225 7.52867 15.1909 7.4341 15.1392 7.34896C15.0876 7.26381 15.0196 7.1898 14.939 7.13124C14.8585 7.07267 14.7671 7.03073 14.6702 7.00786C14.5733 6.98498 14.4728 6.98163 14.3746 6.998C14.2764 7.01437 14.1824 7.05013 14.0982 7.1032C14.0139 7.15627 13.9411 7.22558 13.8839 7.30709C13.8267 7.38861 13.7863 7.48069 13.7651 7.57797C13.7439 7.67526 13.7423 7.77579 13.7603 7.87371L14.5 12.309C14.5 13.1047 14.1839 13.8677 13.6213 14.4303C13.0587 14.993 12.2957 15.309 11.5 15.309C10.7044 15.309 9.9413 14.993 9.37869 14.4303C8.81608 13.8677 8.50001 13.1047 8.50001 12.309L9.23876 7.87371C9.2568 7.77579 9.25517 7.67526 9.23395 7.57797C9.21273 7.48069 9.17236 7.38861 9.11518 7.30709C9.058 7.22558 8.98516 7.15627 8.90091 7.1032C8.81666 7.05013 8.72269 7.01437 8.62448 6.998C8.52626 6.98163 8.42577 6.98498 8.32886 7.00786C8.23196 7.03073 8.14058 7.07267 8.06005 7.13124C7.97952 7.1898 7.91147 7.26381 7.85984 7.34896C7.80822 7.4341 7.77407 7.52867 7.75938 7.62715L7.00938 12.1271C7.00297 12.1678 6.99983 12.2088 7.00001 12.25C7.00151 13.3129 7.37868 14.3411 8.06488 15.1529C8.75109 15.9647 9.70215 16.5078 10.75 16.6862V25C10.75 25.1989 10.829 25.3896 10.9697 25.5303C11.1103 25.6709 11.3011 25.75 11.5 25.75C11.6989 25.75 11.8897 25.6709 12.0303 25.5303C12.171 25.3896 12.25 25.1989 12.25 25V16.6862C13.2979 16.5078 14.2489 15.9647 14.9351 15.1529C15.6213 14.3411 15.9985 13.3129 16 12.25C15.9999 12.2088 15.9964 12.1677 15.9897 12.1271L15.2397 7.62715Z" fill="#881337"/>
</svg>
