<svg width="32" height="32" viewBox="0 0 32 32" fill="none" xmlns="http://www.w3.org/2000/svg">
<circle cx="16" cy="16" r="16" fill="#DBEAFE"/>
<path opacity="0.2" d="M7 16.75H13.75V19.375C13.75 20.2701 13.3944 21.1286 12.7615 21.7615C12.1286 22.3944 11.2701 22.75 10.375 22.75C9.47989 22.75 8.62145 22.3944 7.98851 21.7615C7.35558 21.1286 7 20.2701 7 19.375V16.75ZM18.25 16.75V19.375C18.25 20.2701 18.6056 21.1286 19.2385 21.7615C19.8715 22.3944 20.7299 22.75 21.625 22.75C22.5201 22.75 23.3785 22.3944 24.0115 21.7615C24.6444 21.1286 25 20.2701 25 19.375V16.75H18.25Z" fill="#1E3A8A"/>
<path d="M22.75 7.75C22.5511 7.75 22.3603 7.82902 22.2197 7.96967C22.079 8.11032 22 8.30109 22 8.5C22 8.69891 22.079 8.88968 22.2197 9.03033C22.3603 9.17098 22.5511 9.25 22.75 9.25C23.1478 9.25 23.5294 9.40804 23.8107 9.68934C24.092 9.97064 24.25 10.3522 24.25 10.75V16H7.75V10.75C7.75 10.3522 7.90804 9.97064 8.18934 9.68934C8.47064 9.40804 8.85218 9.25 9.25 9.25C9.44891 9.25 9.63968 9.17098 9.78033 9.03033C9.92098 8.88968 10 8.69891 10 8.5C10 8.30109 9.92098 8.11032 9.78033 7.96967C9.63968 7.82902 9.44891 7.75 9.25 7.75C8.45435 7.75 7.69129 8.06607 7.12868 8.62868C6.56607 9.19129 6.25 9.95435 6.25 10.75V19.375C6.25 20.469 6.6846 21.5182 7.45818 22.2918C8.23177 23.0654 9.28098 23.5 10.375 23.5C11.469 23.5 12.5182 23.0654 13.2918 22.2918C14.0654 21.5182 14.5 20.469 14.5 19.375V17.5H17.5V19.375C17.5 20.469 17.9346 21.5182 18.7082 22.2918C19.4818 23.0654 20.531 23.5 21.625 23.5C22.719 23.5 23.7682 23.0654 24.5418 22.2918C25.3154 21.5182 25.75 20.469 25.75 19.375V10.75C25.75 9.95435 25.4339 9.19129 24.8713 8.62868C24.3087 8.06607 23.5456 7.75 22.75 7.75ZM23.9341 20.6228L20.8103 17.5H24.25V19.375C24.2507 19.8108 24.142 20.2398 23.9341 20.6228ZM7.75 19.375V17.8103L11.6228 21.6841C11.223 21.9001 10.7739 22.0086 10.3195 21.999C9.86516 21.9894 9.42107 21.862 9.03071 21.6293C8.64036 21.3965 8.31712 21.0664 8.09262 20.6713C7.86813 20.2761 7.75007 19.8295 7.75 19.375ZM13 19.375C13.0007 19.8108 12.892 20.2398 12.6841 20.6228L9.56031 17.5H13V19.375ZM19 19.375V17.8103L22.8728 21.6841C22.473 21.9001 22.0239 22.0086 21.5695 21.999C21.1152 21.9894 20.6711 21.862 20.2807 21.6293C19.8904 21.3965 19.5671 21.0664 19.3426 20.6713C19.1181 20.2761 19.0001 19.8295 19 19.375Z" fill="#1E3A8A"/>
</svg>
