<svg width="32" height="32" viewBox="0 0 32 32" fill="none" xmlns="http://www.w3.org/2000/svg">
<circle cx="16" cy="16" r="16" fill="#DBEAFE"/>
<path opacity="0.2" d="M25.75 15.25C25.75 16.2446 25.3549 17.1984 24.6517 17.9017C23.9484 18.6049 22.9946 19 22 19H18.25V11.5H22C22.9946 11.5 23.9484 11.8951 24.6517 12.5983C25.3549 13.3016 25.75 14.2554 25.75 15.25Z" fill="#171717"/>
<path d="M26.5 15.2498C26.4988 14.0567 26.0243 12.9129 25.1806 12.0692C24.337 11.2256 23.1931 10.7511 22 10.7498H18.2687C17.9959 10.7339 13.2419 10.3992 8.71469 6.60234C8.49607 6.41873 8.22959 6.30132 7.94656 6.26391C7.66353 6.2265 7.37571 6.27064 7.11689 6.39114C6.85807 6.51163 6.63902 6.70349 6.48546 6.94417C6.3319 7.18484 6.25022 7.46434 6.25 7.74984V22.7498C6.25004 23.0354 6.3316 23.315 6.48508 23.5558C6.63857 23.7967 6.85761 23.9887 7.11646 24.1093C7.37532 24.2299 7.66322 24.2741 7.94633 24.2367C8.22945 24.1994 8.49601 24.0819 8.71469 23.8983C12.2556 20.9283 15.9334 20.077 17.5 19.8389V22.8126C17.4997 23.0598 17.5605 23.3032 17.6769 23.5213C17.7934 23.7393 17.9619 23.9252 18.1675 24.0623L19.1987 24.7495C19.3981 24.8826 19.6264 24.9659 19.8645 24.9926C20.1027 25.0193 20.3438 24.9885 20.5676 24.9028C20.7914 24.8172 20.9914 24.6791 21.151 24.5003C21.3105 24.3214 21.4248 24.107 21.4844 23.8748L22.5878 19.7161C23.6704 19.572 24.6638 19.0398 25.3834 18.2183C26.103 17.3968 26.4998 16.3419 26.5 15.2498ZM7.75 22.7433V7.74984C11.7634 11.1164 15.8716 11.9686 17.5 12.1786V18.3173C15.8734 18.5311 11.7663 19.3814 7.75 22.7433ZM20.0312 23.4933V23.5036L19 22.8164V19.7498H21.025L20.0312 23.4933ZM22 18.2498H19V12.2498H22C22.7956 12.2498 23.5587 12.5659 24.1213 13.1285C24.6839 13.6911 25 14.4542 25 15.2498C25 16.0455 24.6839 16.8085 24.1213 17.3712C23.5587 17.9338 22.7956 18.2498 22 18.2498Z" fill="#1E3A8A"/>
</svg>
