<?xml version="1.0" encoding="iso-8859-1"?>
<!-- Uploaded to: SVG Repo, www.svgrepo.com, Generator: SVG Repo Mixer Tools -->
<svg version="1.1" id="Layer_1" xmlns="http://www.w3.org/2000/svg" xmlns:xlink="http://www.w3.org/1999/xlink" 
	 viewBox="0 0 508.033 508.033" xml:space="preserve">
<g>
	<path style="fill:#7D8B95;" d="M414.033,450.217l0.4-332h-45.6c-0.8,0-1.6-0.4-1.6-1.2l-18.8-38.4c-0.8-1.6-2-3.2-3.2-5.2
		c-0.4,0.4-0.8,0.4-1.2,0.4h-176c-0.4,0-1.2-0.4-1.2-0.4c-1.2,1.6-2.4,3.2-3.2,5.2l-18.8,38.4c-0.4,0.8-1.2,1.2-1.6,1.2h-106.8
		c-15.2,0-34,10.8-34,28v272c0,1.2,2,2.8,2.4,4h131.6c5.6,0,6,2.4,6,8v20H414.033z M56.033,188.217c-12,0-22-10-22-22s10-22,22-22
		s22,10,22,22S68.033,188.217,56.033,188.217z M88.033,208.217c-5.6,0-10-4.4-10-10s4.4-10,10-10s10,4.4,10,10
		S93.633,208.217,88.033,208.217z"/>
	<path style="fill:#7D8B95;" d="M346.434,74.217c-7.2-6.8-14.8-16-30.4-16h-120c-8.8,0-23.2,9.2-30.4,16H346.434z"/>
</g>
<path style="fill:#AEB1B4;" d="M256.033,148.217c-74,0-134,60-134,134s60,134,134,134s134-60,134-134
	S330.033,148.217,256.033,148.217z"/>
<path style="fill:#CDEEF9;" d="M256.033,339.017c-31.6,0-56.8-25.6-56.8-56.8c0-31.6,25.6-56.8,56.8-56.8c10,0,20,2.8,28.8,7.6
	c0.8,0.4,16.8,12,20.4,20.8c4,9.2,7.6,18.4,7.6,28.4C312.833,313.817,287.633,339.017,256.033,339.017z M321.233,191.417
	c-19.2-13.6-41.6-21.2-65.2-21.2c-61.6,0-112,50.4-112,112s50.4,112,112,112s112-50.4,112-112c0-24.4-6.8-46.4-19.6-63.2
	C333.233,198.617,321.633,191.417,321.233,191.417z"/>
<path style="fill:#354E5C;" d="M476.033,118.217h-66v332h66c17.2,0,26-16.8,26-32v-272
	C502.033,129.817,492.433,118.217,476.033,118.217z"/>
<g>
	<rect x="194.033" y="90.217" style="fill:#F4EFEF;" width="116" height="12"/>
	<path style="fill:#F4EFEF;" d="M56.033,148.217c-10,0-18,8-18,18s8,18,18,18s18-8,18-18S66.033,148.217,56.033,148.217z"/>
	<circle style="fill:#F4EFEF;" cx="88.033" cy="198.217" r="6"/>
</g>
<path style="fill:#354E5C;" d="M136.033,426.217H5.233c0,0,0,0,0,0.4c4,13.2,17.2,23.6,30.8,23.6h102v-20
	C138.033,427.017,139.233,426.217,136.033,426.217z"/>
<path style="fill:#CC9999;" d="M4.033,426.217l1.2,0.4c0,0,0,0,0-0.4H4.033z"/>
<g>
	<rect x="38.033" y="98.217" style="fill:#2884A9;" width="76" height="16"/>
	<path style="fill:#2884A9;" d="M466.033,102.217h-2h-26c-3.2,0-6,2.8-6,6s2.8,6,6,6h28c2.8,0,5.6-2,6-5.2c0-0.4,0-0.8,0-1.2
		C472.033,105.017,469.233,102.217,466.033,102.217z"/>
</g>
<path style="fill:#ACD9EA;" d="M286.033,230.217c-8.8-5.2-19.6-8-30-8c-33.2,0-60,26.8-60,60s26.8,60,60,60s60-26.8,60-60
	c0-10.8-4-20.4-8.4-30.4C304.434,244.617,291.233,233.817,286.033,230.217z"/>
<path d="M256.033,422.217c-77.2,0-140-62.8-140-140s62.8-140,140-140s140,62.8,140,140S333.233,422.217,256.033,422.217z
	 M256.033,150.217c-72.8,0-132,59.2-132,132s59.2,132,132,132s132-59.2,132-132S328.833,150.217,256.033,150.217z"/>
<path d="M476.033,456.217h-440c-9.2,0-18.4-4-25.2-11.2c-7.2-7.6-11.2-17.2-10.8-27.2v-272c-0.4-8.8,2.8-16.8,8.8-23.2
	c6.8-6.8,16.8-10.8,27.2-10.8h104.4l17.6-36c6.4-13.2,23.6-24,38-24h120c14.8,0,31.6,10.8,38,24l17.6,36h104.4c19.2,0,32,13.6,32,34
	v272C508.033,436.617,496.833,456.217,476.033,456.217z M36.033,120.217c-8.4,0-16.4,3.2-21.6,8.4c-4.4,4.8-6.8,10.8-6.4,17.6v272
	c-0.4,7.6,2.8,15.6,8.4,21.2c5.6,5.6,12.4,8.8,19.6,8.8h440c15.6,0,24-15.2,24-30v-272c0-16-9.2-26-24-26h-106.8
	c-1.6,0-2.8-0.8-3.6-2.4l-18.8-38.4c-5.2-10.4-19.2-19.2-30.8-19.2h-120c-11.6,0-25.6,8.8-30.8,19.2l-18.8,38.4
	c-0.8,1.2-2,2.4-3.6,2.4H36.033z"/>
<path d="M312.033,108.217h-120c-2.4,0-4-1.6-4-4v-16c0-2.4,1.6-4,4-4h120c2.4,0,4,1.6,4,4v16
	C316.033,106.617,314.434,108.217,312.033,108.217z M196.033,100.217h112v-8h-112V100.217z"/>
<path d="M412.033,450.217c-2.4,0-4-1.6-4-4v-268c0-2.4,1.6-4,4-4s4,1.6,4,4v268C416.033,448.617,414.434,450.217,412.033,450.217z"
	/>
<path d="M412.033,150.217c-2.4,0-4-1.6-4-4v-28c0-2.4,1.6-4,4-4s4,1.6,4,4v28C416.033,148.617,414.434,150.217,412.033,150.217z"/>
<path d="M56.033,190.217c-13.2,0-24-10.8-24-24s10.8-24,24-24s24,10.8,24,24S69.233,190.217,56.033,190.217z M56.033,150.217
	c-8.8,0-16,7.2-16,16s7.2,16,16,16s16-7.2,16-16S64.833,150.217,56.033,150.217z"/>
<path d="M88.033,210.217c-6.8,0-12-5.2-12-12s5.2-12,12-12s12,5.2,12,12S94.833,210.217,88.033,210.217z M88.033,194.217
	c-2.4,0-4,1.6-4,4s1.6,4,4,4s4-1.6,4-4S90.434,194.217,88.033,194.217z"/>
<path d="M140.033,454.217c-2.4,0-4-1.6-4-4v-21.2c0-0.4,0-0.8,0-0.8l0,0h-130c-2.4,0-4-1.6-4-4s1.6-4,4-4h130c2,0,4.4,0.4,6,2
	c2,2,2,4.4,2,7.2v20.8C144.033,452.617,142.434,454.217,140.033,454.217z"/>
<path d="M256.033,402.217c-66,0-120-54-120-120s54-120,120-120c25.2,0,49.6,7.6,70,22.4c1.6,1.2,2.4,3.6,0.8,5.6
	c-1.2,1.6-3.6,2.4-5.6,0.8c-19.2-13.6-41.6-20.8-65.2-20.8c-61.6,0-112,50.4-112,112s50.4,112,112,112s112-50.4,112-112
	c0-22.8-6.8-44.4-19.6-63.2c-1.2-2-0.8-4.4,1.2-5.6s4.4-0.8,5.6,1.2c13.6,20,20.8,43.6,20.8,67.6
	C376.033,348.217,322.033,402.217,256.033,402.217z"/>
<path d="M256.033,342.217c-33.2,0-60-26.8-60-60s26.8-60,60-60c10.8,0,21.2,2.8,30.4,8.4c2,1.2,2.4,3.6,1.6,5.6
	c-1.2,2-3.6,2.4-5.6,1.6c-8-4.8-17.2-7.2-26.4-7.2c-28.8,0-52,23.2-52,52s23.2,52,52,52s52-23.2,52-52c0-9.2-2.4-18.4-7.2-26.4
	c-1.2-2-0.4-4.4,1.6-5.6s4.4-0.4,5.6,1.6c5.2,9.2,8,19.6,8,30.4C316.033,315.417,289.233,342.217,256.033,342.217z"/>
<path d="M116.033,120.217h-80c-2.4,0-4-1.6-4-4v-20c0-2.4,1.6-4,4-4h80c2.4,0,4,1.6,4,4v20
	C120.033,118.617,118.434,120.217,116.033,120.217z M40.033,112.217h72v-12h-72V112.217z"/>
<path d="M464.033,120.217h-28c-6.8,0-12-5.2-12-12s5.2-12,12-12h28c6.8,0,12,5.2,12,12S470.833,120.217,464.033,120.217z
	 M436.033,104.217c-2.4,0-4,1.6-4,4s1.6,4,4,4h28c2.4,0,4-1.6,4-4s-1.6-4-4-4H436.033z"/>
</svg>