<svg width="32" height="32" viewBox="0 0 32 32" fill="none" xmlns="http://www.w3.org/2000/svg">
<circle cx="16" cy="16" r="16" fill="#D1FAE5"/>
<path opacity="0.2" d="M25.75 20.5C25.75 21.0933 25.5741 21.6734 25.2444 22.1667C24.9148 22.6601 24.4462 23.0446 23.8981 23.2716C23.3499 23.4987 22.7467 23.5581 22.1647 23.4424C21.5828 23.3266 21.0482 23.0409 20.6287 22.6213C20.2091 22.2018 19.9234 21.6672 19.8076 21.0853C19.6919 20.5033 19.7513 19.9001 19.9784 19.352C20.2054 18.8038 20.5899 18.3352 21.0833 18.0056C21.5766 17.6759 22.1567 17.5 22.75 17.5C23.5457 17.5 24.3087 17.8161 24.8713 18.3787C25.4339 18.9413 25.75 19.7044 25.75 20.5ZM9.25 17.5C8.65666 17.5 8.07664 17.6759 7.58329 18.0056C7.08994 18.3352 6.70543 18.8038 6.47836 19.352C6.2513 19.9001 6.19189 20.5033 6.30765 21.0853C6.4234 21.6672 6.70912 22.2018 7.12868 22.6213C7.54824 23.0409 8.08279 23.3266 8.66473 23.4424C9.24667 23.5581 9.84987 23.4987 10.3981 23.2716C10.9462 23.0446 11.4148 22.6601 11.7444 22.1667C12.0741 21.6734 12.25 21.0933 12.25 20.5C12.25 19.7044 11.9339 18.9413 11.3713 18.3787C10.8087 17.8161 10.0457 17.5 9.25 17.5Z" fill="#064E3B"/>
<path d="M19.375 11.5C19.8942 11.5 20.4017 11.346 20.8334 11.0576C21.2651 10.7692 21.6015 10.3592 21.8002 9.87955C21.9989 9.39989 22.0508 8.87209 21.9496 8.36289C21.8483 7.85369 21.5983 7.38596 21.2312 7.01885C20.864 6.65173 20.3963 6.40173 19.8871 6.30044C19.3779 6.19915 18.8501 6.25114 18.3705 6.44982C17.8908 6.6485 17.4808 6.98495 17.1924 7.41663C16.904 7.84831 16.75 8.35583 16.75 8.875C16.75 9.57119 17.0266 10.2389 17.5188 10.7312C18.0111 11.2234 18.6788 11.5 19.375 11.5ZM19.375 7.75C19.5975 7.75 19.815 7.81598 20 7.9396C20.185 8.06321 20.3292 8.23892 20.4144 8.44448C20.4995 8.65005 20.5218 8.87625 20.4784 9.09448C20.435 9.31271 20.3278 9.51316 20.1705 9.6705C20.0132 9.82783 19.8127 9.93498 19.5945 9.97838C19.3762 10.0218 19.1501 9.99951 18.9445 9.91437C18.7389 9.82922 18.5632 9.68502 18.4396 9.50002C18.316 9.31501 18.25 9.09751 18.25 8.875C18.25 8.57663 18.3685 8.29048 18.5795 8.07951C18.7905 7.86853 19.0766 7.75 19.375 7.75ZM22.75 16.75C22.0083 16.75 21.2833 16.9699 20.6666 17.382C20.0499 17.794 19.5693 18.3797 19.2855 19.0649C19.0016 19.7502 18.9274 20.5042 19.0721 21.2316C19.2168 21.959 19.5739 22.6272 20.0984 23.1517C20.6228 23.6761 21.291 24.0333 22.0184 24.1779C22.7458 24.3226 23.4998 24.2484 24.1851 23.9646C24.8703 23.6807 25.456 23.2001 25.868 22.5834C26.2801 21.9667 26.5 21.2417 26.5 20.5C26.5 19.5054 26.1049 18.5516 25.4017 17.8484C24.6984 17.1451 23.7446 16.75 22.75 16.75ZM22.75 22.75C22.305 22.75 21.87 22.618 21.5 22.3708C21.13 22.1236 20.8416 21.7722 20.6713 21.361C20.501 20.9499 20.4564 20.4975 20.5432 20.061C20.6301 19.6246 20.8443 19.2237 21.159 18.909C21.4737 18.5943 21.8746 18.3801 22.311 18.2932C22.7475 18.2064 23.1999 18.251 23.611 18.4213C24.0222 18.5916 24.3736 18.88 24.6208 19.25C24.868 19.62 25 20.055 25 20.5C25 21.0967 24.7629 21.669 24.341 22.091C23.919 22.513 23.3467 22.75 22.75 22.75ZM9.25 16.75C8.50832 16.75 7.7833 16.9699 7.16661 17.382C6.54993 17.794 6.06928 18.3797 5.78545 19.0649C5.50162 19.7502 5.42736 20.5042 5.57206 21.2316C5.71675 21.959 6.0739 22.6272 6.59835 23.1517C7.1228 23.6761 7.79098 24.0333 8.51841 24.1779C9.24584 24.3226 9.99984 24.2484 10.6851 23.9646C11.3703 23.6807 11.956 23.2001 12.368 22.5834C12.7801 21.9667 13 21.2417 13 20.5C13 20.0075 12.903 19.5199 12.7146 19.0649C12.5261 18.61 12.2499 18.1966 11.9017 17.8484C11.5534 17.5001 11.14 17.2239 10.6851 17.0355C10.2301 16.847 9.74246 16.75 9.25 16.75ZM9.25 22.75C8.80499 22.75 8.36998 22.618 7.99997 22.3708C7.62996 22.1236 7.34157 21.7722 7.17127 21.361C7.00098 20.9499 6.95642 20.4975 7.04323 20.061C7.13005 19.6246 7.34434 19.2237 7.65901 18.909C7.97368 18.5943 8.37459 18.3801 8.81105 18.2932C9.24751 18.2064 9.69991 18.251 10.111 18.4213C10.5222 18.5916 10.8736 18.88 11.1208 19.25C11.368 19.62 11.5 20.055 11.5 20.5C11.5 21.0967 11.2629 21.669 10.841 22.091C10.419 22.513 9.84674 22.75 9.25 22.75ZM22 15.25H18.25C18.1515 15.2501 18.0539 15.2307 17.9629 15.1931C17.8718 15.1555 17.7891 15.1003 17.7194 15.0306L15.25 12.5603L13.3103 14.5L16.5306 17.7194C16.6003 17.7891 16.6555 17.8718 16.6931 17.9629C16.7307 18.0539 16.7501 18.1515 16.75 18.25V22.75C16.75 22.9489 16.671 23.1397 16.5303 23.2803C16.3897 23.421 16.1989 23.5 16 23.5C15.8011 23.5 15.6103 23.421 15.4697 23.2803C15.329 23.1397 15.25 22.9489 15.25 22.75V18.5603L11.7194 15.0306C11.6496 14.961 11.5943 14.8783 11.5566 14.7872C11.5188 14.6962 11.4994 14.5986 11.4994 14.5C11.4994 14.4014 11.5188 14.3038 11.5566 14.2128C11.5943 14.1217 11.6496 14.039 11.7194 13.9694L14.7194 10.9694C14.789 10.8996 14.8717 10.8443 14.9628 10.8066C15.0538 10.7688 15.1514 10.7494 15.25 10.7494C15.3486 10.7494 15.4462 10.7688 15.5372 10.8066C15.6283 10.8443 15.711 10.8996 15.7806 10.9694L18.5603 13.75H22C22.1989 13.75 22.3897 13.829 22.5303 13.9697C22.671 14.1103 22.75 14.3011 22.75 14.5C22.75 14.6989 22.671 14.8897 22.5303 15.0303C22.3897 15.171 22.1989 15.25 22 15.25Z" fill="#064E3B"/>
</svg>
