<svg width="32" height="32" viewBox="0 0 32 32" fill="none" xmlns="http://www.w3.org/2000/svg">
<circle cx="16" cy="16" r="16" fill="#D1FAE5"/>
<path opacity="0.2" d="M22.75 10V11.5H20.5C20.1022 11.5 19.7206 11.658 19.4393 11.9393C19.158 12.2206 19 12.6022 19 13V20.5H7.75C7.35218 20.5 6.97064 20.342 6.68934 20.0607C6.40804 19.7794 6.25 19.3978 6.25 19V10C6.25 9.60218 6.40804 9.22064 6.68934 8.93934C6.97064 8.65804 7.35218 8.5 7.75 8.5H21.25C21.6478 8.5 22.0294 8.65804 22.3107 8.93934C22.592 9.22064 22.75 9.60218 22.75 10Z" fill="#064E3B"/>
<path d="M25 10.75H23.5V10C23.5 9.40326 23.2629 8.83097 22.841 8.40901C22.419 7.98705 21.8467 7.75 21.25 7.75H7.75C7.15326 7.75 6.58097 7.98705 6.15901 8.40901C5.73705 8.83097 5.5 9.40326 5.5 10V19C5.5 19.5967 5.73705 20.169 6.15901 20.591C6.58097 21.0129 7.15326 21.25 7.75 21.25H18.25V22C18.25 22.5967 18.4871 23.169 18.909 23.591C19.331 24.0129 19.9033 24.25 20.5 24.25H25C25.5967 24.25 26.169 24.0129 26.591 23.591C27.0129 23.169 27.25 22.5967 27.25 22V13C27.25 12.4033 27.0129 11.831 26.591 11.409C26.169 10.9871 25.5967 10.75 25 10.75ZM7.75 19.75C7.55109 19.75 7.36032 19.671 7.21967 19.5303C7.07902 19.3897 7 19.1989 7 19V10C7 9.80109 7.07902 9.61032 7.21967 9.46967C7.36032 9.32902 7.55109 9.25 7.75 9.25H21.25C21.4489 9.25 21.6397 9.32902 21.7803 9.46967C21.921 9.61032 22 9.80109 22 10V10.75H20.5C19.9033 10.75 19.331 10.9871 18.909 11.409C18.4871 11.831 18.25 12.4033 18.25 13V19.75H7.75ZM25.75 22C25.75 22.1989 25.671 22.3897 25.5303 22.5303C25.3897 22.671 25.1989 22.75 25 22.75H20.5C20.3011 22.75 20.1103 22.671 19.9697 22.5303C19.829 22.3897 19.75 22.1989 19.75 22V13C19.75 12.8011 19.829 12.6103 19.9697 12.4697C20.1103 12.329 20.3011 12.25 20.5 12.25H25C25.1989 12.25 25.3897 12.329 25.5303 12.4697C25.671 12.6103 25.75 12.8011 25.75 13V22ZM16.75 23.5C16.75 23.6989 16.671 23.8897 16.5303 24.0303C16.3897 24.171 16.1989 24.25 16 24.25H12.25C12.0511 24.25 11.8603 24.171 11.7197 24.0303C11.579 23.8897 11.5 23.6989 11.5 23.5C11.5 23.3011 11.579 23.1103 11.7197 22.9697C11.8603 22.829 12.0511 22.75 12.25 22.75H16C16.1989 22.75 16.3897 22.829 16.5303 22.9697C16.671 23.1103 16.75 23.3011 16.75 23.5ZM24.25 14.5C24.25 14.6989 24.171 14.8897 24.0303 15.0303C23.8897 15.171 23.6989 15.25 23.5 15.25H22C21.8011 15.25 21.6103 15.171 21.4697 15.0303C21.329 14.8897 21.25 14.6989 21.25 14.5C21.25 14.3011 21.329 14.1103 21.4697 13.9697C21.6103 13.829 21.8011 13.75 22 13.75H23.5C23.6989 13.75 23.8897 13.829 24.0303 13.9697C24.171 14.1103 24.25 14.3011 24.25 14.5Z" fill="#064E3B"/>
</svg>
