<svg width="32" height="32" viewBox="0 0 32 32" fill="none" xmlns="http://www.w3.org/2000/svg">
<circle cx="16" cy="16" r="16" fill="#FFE4E6"/>
<path opacity="0.2" d="M24.33 23.4597C23.9145 23.533 23.4874 23.5051 23.085 23.3783C22.6825 23.2515 22.3166 23.0295 22.0181 22.7313L18.0703 18.25H20.1244C20.8362 18.2508 21.5395 18.0955 22.1848 17.795C22.8301 17.4946 23.4017 17.0564 23.8594 16.5111C24.317 15.9659 24.6495 15.327 24.8335 14.6394C25.0175 13.9518 25.0485 13.2322 24.9244 12.5312L26.4581 20.4222C26.578 21.1071 26.4213 21.8116 26.0223 22.3811C25.6233 22.9506 25.0147 23.3385 24.33 23.4597Z" fill="#881337"/>
<path d="M20.4988 14.5H18.2488C18.0498 14.5 17.8591 14.421 17.7184 14.2803C17.5778 14.1397 17.4988 13.9489 17.4988 13.75C17.4988 13.5511 17.5778 13.3603 17.7184 13.2197C17.8591 13.079 18.0498 13 18.2488 13H20.4988C20.6977 13 20.8884 13.079 21.0291 13.2197C21.1697 13.3603 21.2488 13.5511 21.2488 13.75C21.2488 13.9489 21.1697 14.1397 21.0291 14.2803C20.8884 14.421 20.6977 14.5 20.4988 14.5ZM13.7488 13H12.9988V12.25C12.9988 12.0511 12.9197 11.8603 12.7791 11.7197C12.6384 11.579 12.4477 11.5 12.2488 11.5C12.0498 11.5 11.8591 11.579 11.7184 11.7197C11.5778 11.8603 11.4988 12.0511 11.4988 12.25V13H10.7488C10.5498 13 10.3591 13.079 10.2184 13.2197C10.0778 13.3603 9.99875 13.5511 9.99875 13.75C9.99875 13.9489 10.0778 14.1397 10.2184 14.2803C10.3591 14.421 10.5498 14.5 10.7488 14.5H11.4988V15.25C11.4988 15.4489 11.5778 15.6397 11.7184 15.7803C11.8591 15.921 12.0498 16 12.2488 16C12.4477 16 12.6384 15.921 12.7791 15.7803C12.9197 15.6397 12.9988 15.4489 12.9988 15.25V14.5H13.7488C13.9477 14.5 14.1384 14.421 14.2791 14.2803C14.4197 14.1397 14.4988 13.9489 14.4988 13.75C14.4988 13.5511 14.4197 13.3603 14.2791 13.2197C14.1384 13.079 13.9477 13 13.7488 13ZM26.6375 22.8109C26.3548 23.2146 25.9872 23.5514 25.5605 23.7978C25.1337 24.0442 24.6582 24.1941 24.1673 24.2371C23.6764 24.2801 23.1821 24.2151 22.719 24.0466C22.2559 23.8781 21.8354 23.6103 21.4869 23.2619C21.4756 23.2506 21.4644 23.2394 21.4541 23.2272L17.7313 19H14.2625L10.5434 23.2272L10.5106 23.2619C9.87707 23.8941 9.01877 24.2494 8.12375 24.25C7.63104 24.2498 7.14434 24.1418 6.69784 23.9334C6.25135 23.7251 5.85589 23.4215 5.53924 23.044C5.22259 22.6665 4.99244 22.2242 4.86494 21.7483C4.73745 21.2724 4.71571 20.7743 4.80125 20.2891C4.8008 20.2847 4.8008 20.2803 4.80125 20.2759L6.33594 12.3925C6.56434 11.0923 7.24368 9.91409 8.25459 9.06504C9.26549 8.21599 10.5433 7.75037 11.8634 7.75H20.1238C21.4399 7.7521 22.7138 8.21506 23.7242 9.05849C24.7346 9.90193 25.4178 11.0726 25.655 12.3672C25.655 12.3728 25.655 12.3784 25.655 12.3841L27.1897 20.275C27.1901 20.2794 27.1901 20.2838 27.1897 20.2881C27.2691 20.7243 27.2612 21.1718 27.1664 21.6049C27.0716 22.0379 26.8919 22.4479 26.6375 22.8109ZM20.1238 17.5C21.2178 17.5 22.267 17.0654 23.0406 16.2918C23.8142 15.5182 24.2488 14.469 24.2488 13.375C24.2488 12.281 23.8142 11.2318 23.0406 10.4582C22.267 9.6846 21.2178 9.25 20.1238 9.25H11.8634C10.895 9.25087 9.9578 9.59325 9.21685 10.2169C8.4759 10.8406 7.97862 11.7056 7.8125 12.6597V12.6719L6.27688 20.5553C6.209 20.9461 6.26683 21.3484 6.44204 21.7043C6.61726 22.0602 6.90084 22.3514 7.25199 22.5359C7.60313 22.7204 8.00376 22.7889 8.39625 22.7313C8.78874 22.6738 9.15286 22.4932 9.43625 22.2156L13.3663 17.7541C13.4366 17.6742 13.5232 17.6103 13.6202 17.5665C13.7171 17.5227 13.8223 17.5 13.9288 17.5H20.1238ZM25.7206 20.5553L24.9013 16.3366C24.3973 17.1503 23.6941 17.822 22.858 18.2881C22.022 18.7542 21.0809 18.9992 20.1238 19H19.73L22.5613 22.2166C22.7747 22.4242 23.0344 22.5783 23.3189 22.6661C23.6035 22.7539 23.9048 22.773 24.1981 22.7219C24.6868 22.6356 25.1214 22.3591 25.4066 21.953C25.6918 21.5469 25.8044 21.0443 25.7197 20.5553H25.7206Z" fill="#881337"/>
</svg>
