<?xml version="1.0" encoding="utf-8"?>
<!-- Uploaded to: SVG Repo, www.svgrepo.com, Generator: SVG Repo Mixer Tools -->
<svg width="800px" height="800px" viewBox="0 0 1024 1024" class="icon"  version="1.1" xmlns="http://www.w3.org/2000/svg"><path d="M546.5 408h-67.1c-55.5 0-100.6-45.1-100.6-100.6V173.8c0-55.5 45.1-100.6 100.6-100.6h67.1c55.5 0 100.6 45.1 100.6 100.6v133.6c0 55.5-45.1 100.6-100.6 100.6z m-67-284.8c-27.9 0-50.6 22.7-50.6 50.6v133.6c0 27.9 22.7 50.6 50.6 50.6h67.1c27.9 0 50.6-22.7 50.6-50.6V173.8c0-27.9-22.7-50.6-50.6-50.6h-67.1z" fill="#0F53A8" /><path d="M936.2 925.4H89.8c-32 0-58-26-58-58V269c0-32 26-58 58-58h846.4c32 0 58 26 58 58v598.3c0 32.1-26 58.1-58 58.1z" fill="#B6CDEF" /><path d="M936.2 940.4H89.8c-40.3 0-73-32.7-73-73V269c0-40.3 32.7-73 73-73h846.4c40.3 0 73 32.7 73 73v598.3c0 40.3-32.8 73.1-73 73.1zM89.8 226c-23.7 0-43 19.3-43 43v598.3c0 23.7 19.3 43 43 43h846.4c23.7 0 43-19.3 43-43V269c0-23.7-19.3-43-43-43H89.8z" fill="#0F53A8" /><path d="M200.5 211h129v714.3h-129z" fill="#89B7F5" /><path d="M329.5 940.4h-129c-8.3 0-15-6.7-15-15V211c0-8.3 6.7-15 15-15h129c8.3 0 15 6.7 15 15v714.3c0 8.4-6.8 15.1-15 15.1z m-114-30h99V226h-99v684.4z" fill="#0F53A8" /><path d="M696.5 211h129v714.3h-129z" fill="#89B7F5" /><path d="M825.5 940.4h-129c-8.3 0-15-6.7-15-15V211c0-8.3 6.7-15 15-15h129c8.3 0 15 6.7 15 15v714.3c0 8.4-6.7 15.1-15 15.1z m-114-30h99V226h-99v684.4z" fill="#0F53A8" /><path d="M390.6 632.8c-8.3 0-15-6.7-15-15V473.1c0-8.3 6.7-15 15-15s15 6.7 15 15v144.7c0 8.3-6.7 15-15 15zM635.4 632.8c-8.3 0-15-6.7-15-15V473.1c0-8.3 6.7-15 15-15s15 6.7 15 15v144.7c0 8.3-6.8 15-15 15z" fill="#0F53A8" /></svg>